<svg width="183" height="482" viewBox="0 0 183 482" fill="none" xmlns="http://www.w3.org/2000/svg">
<path d="M73.5646 375.298C71.4225 377.083 70.5562 379.372 69.2925 381.645C68.2773 383.471 67.2525 385.582 66.5756 387.653C66.2504 388.648 66.4712 389.716 66.096 390.714C65.7104 391.74 64.6378 392.666 64.4138 393.697C63.7692 396.666 61.4704 399.249 60.519 402.082C59.7152 404.475 58.9895 406.278 58.8244 408.795C58.6826 410.954 59.6902 412.511 59.7044 414.498C59.716 416.116 61.5416 417.326 62.1242 418.683C64.7138 424.711 69.0644 427.599 74.5485 430.396C81.0426 433.709 87.9526 435.434 95.3973 434.072C98.8871 433.433 103.173 433.772 105.758 431.217C109.344 427.672 112.575 424.683 114.94 420.135C117.934 414.376 119.56 409.199 117.984 402.759C117.555 401.006 117.134 399.417 116.428 397.797C115.674 396.067 115.249 393.879 114.442 392.315C112.922 389.371 110.733 385.296 108.373 382.859C107.318 381.77 106.377 380.659 105.267 379.587C104.485 378.833 104.131 376.955 103.361 376.418C102.558 375.859 102.267 374.887 102.064 373.879C102.052 373.816 100.872 372.72 101.557 372.765C102.381 372.819 102.395 373.831 102.901 374.228C103.874 374.992 104.319 376.139 105.238 376.836C106.275 377.623 107.474 378.275 108.418 379.352C109.512 380.601 111.069 381.22 112.077 382.341C113.184 383.573 114.718 384.916 116.084 385.697C116.643 386.017 117.586 387.395 118.12 387.942C118.839 388.678 119.688 389.258 120.45 389.96C122.2 391.575 124.449 392.887 125.996 394.644C128.173 397.119 132.119 399.626 132.318 403.43C132.556 407.99 132.362 412.825 132.284 417.395C132.252 419.259 132.856 421.072 132.734 422.923C132.668 423.934 133.359 424.43 133.383 425.42C133.439 427.721 133.242 429.639 133.586 431.889C134.283 436.448 132.236 441.367 133.11 445.874C133.655 448.683 133.989 454.187 132.973 457.156C131.75 460.732 128.868 463.049 127.184 466.448C126.199 468.437 124.858 470.144 124.452 472.332C124.063 474.431 123.333 476.948 122.599 478.985C121.672 481.558 122.317 479.018 122.837 478.191C123.731 476.769 124.98 475.262 125.849 473.7C126.917 471.78 128.294 470.221 129.514 468.466C130.519 467.02 131.143 465.132 132.154 463.632C134.027 460.851 135.363 457.721 136.599 454.645C137.188 453.178 137.983 451.526 138.889 450.181C140.041 448.471 139.64 445.12 139.774 443.071C140.062 438.682 141.342 432.9 140.396 428.629C139.803 425.947 139.444 423.094 139.597 420.28C139.704 418.311 139.045 416.542 139.133 414.604C139.209 412.933 139.497 411.263 139.252 409.604C138.607 405.229 139.202 400.813 139.491 396.413C139.588 394.922 139.607 392.179 138.784 390.893C138.391 390.279 137.302 390.68 136.737 390.243C135.976 389.656 135.126 389.314 134.347 388.786C133.756 388.385 133.123 388.631 132.491 388.394C131.74 388.112 130.635 387.219 129.928 386.753C128.431 385.766 126.067 385.398 124.38 384.572C122.634 383.717 120.791 382.906 118.956 382.277C116.432 381.412 114.042 378.81 112.154 376.922C110.499 375.266 108.096 371.665 105.819 370.811C104.589 370.35 103.655 369.81 102.837 368.824" stroke="white" stroke-width="2.44687" stroke-linecap="round"/>
<path d="M74.208 370.157C72.1317 370.354 70.2021 371.027 68.0856 371.098C67.3452 371.123 65.871 371.477 65.2782 371.964C63.5031 373.421 62.5697 374.708 61.1992 376.578C59.8789 378.38 58.837 381.771 57.2047 383.102C56.1944 383.926 55.8115 385.558 54.7637 386.554C52.6425 388.572 50.5784 390.661 48.3977 392.63C44.6829 395.983 40.6435 398.321 37.5145 401.826C34.2965 405.431 29.6651 409.548 29.3357 414.568C29.2284 416.205 29.121 417.841 29.0136 419.478C28.9749 420.068 29.0551 420.863 28.8628 421.421C28.5695 422.272 27.632 421.351 27.6742 420.708C27.9694 416.208 27.9591 411.835 28.1302 407.362C28.2259 404.862 27.5601 402.189 28.3092 399.66C29.2041 396.638 31.4121 393.832 33.367 391.497C35.2523 389.245 38.2995 387.884 39.6745 385.247C40.5953 383.481 43.3556 382.668 44.992 382.008C46.6641 381.333 48.1877 380.277 49.8607 379.569C52.3683 378.508 54.6329 376.516 57.0947 375.186" stroke="white" stroke-width="2.44687" stroke-linecap="round"/>
<path d="M71.0461 363.17C62.6981 362.622 54.541 364.335 46.1837 363.787C42.5898 363.551 39.6131 365.069 36.247 365.353C34.1195 365.532 33.2067 365.867 31.1524 366.705C30.0328 367.162 28.8815 366.748 27.8653 367.145C23.0795 369.017 21.3275 376.716 19.7435 381.23C18.9505 383.489 18.0529 385.892 17.1313 388.086C16.5877 389.381 16.2125 390.915 15.5327 392.135C15.1791 392.77 14.3084 393.072 14.1523 393.763C13.5357 396.491 11.7864 398.683 10.8383 401.385C10.257 403.041 9.14898 404.301 8.63644 406.051C8.18285 407.598 6.86555 408.54 6.66056 409.981C6.14189 413.629 5.40912 412.234 3.71418 410.194C2.26361 408.448 1.76257 405.262 1.78432 403.04C1.81519 399.887 1.31768 397.16 2.37197 394.083C3.2247 391.594 6.3352 389.351 7.89282 387.136C11.8916 381.452 14.4912 374.559 18.1555 368.414C20.9002 363.81 22.9373 358.327 28.6857 358.704C31.0674 358.86 34.0516 359.012 36.4223 358.618C40.7342 357.901 43.6167 354.623 48.1281 354.919C54.7641 355.355 61.4001 355.79 68.0361 356.226C69.9512 356.351 71.1377 354.277 72.6956 354.282C74.2867 354.288 72.7039 352.056 72.094 351.713C71.1492 351.181 69.9557 351.292 68.8976 351.222C65.1246 350.975 62.7089 345.786 59.4721 344.544C56.8115 343.524 54.155 340.697 51.9656 338.867C47.1374 334.832 41.5805 331.144 37.1866 326.653C33.673 323.062 26.7091 322.519 26.0858 316.617C25.738 313.325 24.0486 310.451 23.416 307.197C22.9881 304.997 22.1765 302.046 21.3132 299.969C19.3679 295.289 19.0532 290.013 17.7557 285.118C16.621 280.837 15.3084 276.599 13.2243 272.921C12.664 271.932 11.0408 271.067 11.0566 269.842C11.0705 268.762 11.4188 267.775 10.8355 266.892C9.93724 265.531 10.0997 260.049 10.2128 258.324C10.3059 256.905 10.0641 254.789 10.647 253.511C11.1636 252.379 12.2309 250.936 12.3788 249.69C12.7136 246.869 13.7867 244.483 13.9691 241.704C14.1643 238.729 13.5787 247.655 13.3834 250.63C12.894 258.09 15.8285 264.195 16.3214 271.312C16.4337 272.933 17.1832 273.979 17.068 275.734C16.9285 277.862 16.793 279.198 17.7829 281.091C19.4506 284.279 20.0531 288.371 21.1125 291.741C22.8336 297.216 26.0817 302.078 28.8815 306.962C30.8026 310.313 32.3195 314.375 34.7151 317.371C35.7953 318.722 37.4531 319.748 38.3756 321.172C39.2422 322.509 40.9666 325.215 42.6056 325.322C44.1864 325.426 45.7389 328.264 47.1194 329.21C49.0396 330.526 50.9925 331.865 53.0275 333.065C56.4985 335.111 60.0485 337.836 64.0134 338.533C65.8012 338.848 67.435 340.186 69.3279 340.6C70.4842 340.852 72.1407 341.006 73.2433 341.419C73.9194 341.672 78.7733 342.911 78.8206 342.191C78.9962 339.513 76.5648 338.467 75.5815 336.481C74.863 335.03 74.1782 333.551 73.4995 332.097C68.8062 322.039 64.2698 311.747 60.0465 301.479C58.8824 298.649 57.6468 293.894 55.72 291.576C54.5982 290.226 53.5422 288.179 53.1856 286.412C52.6584 283.799 51.1722 280.951 51.0516 278.307C50.9514 276.111 51.3163 273.82 51.4608 271.619C51.8203 266.138 52.6958 260.922 53.0547 255.451C53.248 252.504 53.9891 249.335 54.1916 246.249C54.2116 245.945 54.5513 248.892 54.494 249.767C54.364 251.748 55.2689 253.43 55.1966 255.31C55.0355 259.502 56.032 262.88 56.5672 266.925C57.3049 272.5 60.4082 277.665 61.2503 283.13C61.6785 285.909 62.5075 288.546 62.9674 291.27C63.2623 293.016 62.7984 295.302 63.428 296.891C64.8112 300.382 65.0512 304.25 66.4463 307.771C67.968 311.611 68.7856 315.683 70.8436 319.304C73.4255 323.846 76.1484 328.618 78.6618 332.873C79.5454 334.368 80.1939 337.875 82.0209 338.559C84.1183 339.344 83.0435 334.71 83.1346 333.322C83.3079 330.681 82.9268 328.363 83.0995 325.73C83.2452 323.51 82.7357 319.293 84.163 317.648C84.5129 317.245 88.9414 316.72 89.4008 317.273C90.012 318.009 85.2009 320.8 84.565 321.454C83.4622 322.586 84.3639 327.427 84.477 328.663C84.7268 331.393 86.4865 334.226 87.5926 336.707C88.3658 338.441 90.0051 341.363 91.9587 341.491C95.1733 341.702 97.6554 339.539 97.8891 335.977C98.2324 330.745 100.762 324.943 97.5883 320.247C97.119 319.552 95.0652 318.082 96.2737 318.161C97.5082 318.242 98.4612 317.917 98.4417 319.428C98.4073 322.1 99.8903 324.478 100.737 326.887C101.809 329.939 101.872 332.158 101.66 335.381C101.344 340.197 102.407 338.152 104.638 335.139C111.36 326.06 119.177 317.941 124.104 307.525C126.611 302.226 132.975 296.921 133.368 290.923C133.521 288.601 133.673 286.279 133.825 283.957C134.208 278.119 138.841 273.405 141.639 268.696C143.589 265.416 144.874 261.833 145.128 257.962C145.421 253.49 147.11 248.884 148.546 244.693C149.911 240.708 149.622 236.115 151.327 232.101C152.476 229.395 151.352 226.061 152.317 223.327C153.176 220.895 155.501 213.632 155.331 216.216C155.198 218.249 154.027 219.835 153.892 221.9C153.609 226.212 153.326 230.525 153.043 234.837C152.632 241.109 152.22 247.381 151.809 253.653C151.649 256.081 150.455 258.031 150.296 260.456C150.084 263.689 148.741 266.722 147.847 269.791C144.296 281.99 139.174 293.46 133.646 304.747C131.209 309.722 129.141 313.53 125.461 317.546C122.189 321.117 120.018 326.512 117.836 330.82C116.043 334.359 113.796 337.793 111.172 340.753C110.134 341.923 108.829 343.154 107.995 344.48C107.601 345.104 106.313 345.199 105.757 346.082C105.431 346.6 103.646 347.42 103.175 346.6C102.522 345.46 109.264 343.477 110.106 342.994C113.113 341.27 114.539 339.779 116.706 337.212C117.087 336.76 117.001 336.238 117.219 335.715C117.664 334.646 118.811 334.541 119.54 333.743C120.839 332.321 123.835 331.832 125.702 331.024C128.883 329.647 131.62 328.11 135.021 327.138C136.655 326.671 139.351 325.27 140.558 324.003C142.033 322.454 144.384 321.801 146.072 320.773C147.463 319.926 148.538 318.32 150.052 317.442C153.84 315.245 157.713 311.928 159.97 308.035C162.071 304.412 163.492 299.912 164.762 295.95C165.469 293.744 166.181 291.947 167.26 289.93C167.951 288.638 168.392 287.178 169.265 286.001C170.718 284.042 173.054 282.26 174.015 279.972C175.282 276.956 178.875 274.836 179.432 271.457C179.757 269.481 178.64 272.743 178.357 273.385C176.355 277.926 174.349 283.908 174.015 288.999C173.809 292.146 173.13 294.502 171.979 297.454C170.941 300.119 170.818 303.107 169.718 305.739C167.418 311.241 164.313 316.249 160.621 320.697C157.943 323.922 156.061 327.831 153.137 330.919C149.855 334.385 145.556 336.318 141.541 338.81C133.498 343.803 124.955 348.13 116.277 352.332C112.716 354.056 109.29 355.99 105.537 357.562C103.929 358.235 102.151 358.316 100.63 359.207C98.677 360.352 98.7496 358.461 99.3856 358.314C102.726 357.542 107.173 357.107 110.587 357.331C113.407 357.516 116.193 357.584 118.935 358.316C122.101 359.16 126.874 359.386 129.507 361.508C131.257 362.918 133.534 363.107 135.485 364.305C138.113 365.919 141.576 367.289 144.544 367.992C146.615 368.483 148.489 370.379 150.532 370.633C152.621 370.894 154.378 371.37 155.82 373.104C156.759 374.235 155.968 377.161 155.877 378.543C155.658 381.882 155.741 384.695 156.597 387.898C157.658 391.872 159.106 396.115 160.607 399.905C162.586 404.898 165.035 408.168 165.328 413.739C165.697 420.766 160.514 411.377 159.75 408.906C157.731 402.377 153.804 396.715 152.35 389.868C151.944 387.954 150.917 386.519 150.614 384.725C150.45 383.755 149.413 382.859 148.957 381.993C148.227 380.608 148.007 378.806 147.146 377.533C146.355 376.362 143.798 374.865 142.508 374.636C138.138 373.858 133.826 372.929 129.512 371.816C124.13 370.427 118.175 368.074 113.317 365.381C110.836 364.005 108.084 363.182 105.471 362.18C104.037 361.63 103.194 360.781 101.6 360.677" stroke="white" stroke-width="2.44687" stroke-linecap="round"/>
<rect x="89.4049" y="-16" width="4.58487" height="330.111" fill="#D9D9D9"/>
</svg>
