<svg width="552" height="213" viewBox="0 0 552 213" fill="none" xmlns="http://www.w3.org/2000/svg">
<ellipse cx="419.725" cy="102.632" rx="98.9921" ry="130.352" transform="rotate(90 419.725 102.632)" fill="white"/>
<path d="M548.79 104.184C548.79 99.8294 546.998 95.906 546.9 91.6868C546.837 88.9877 547.42 86.49 545.534 84.3354C540.663 78.7682 539.675 70.0619 536.502 63.5413C533.753 57.8904 529.064 51.8806 525.16 47.0005C523.827 45.3336 522.312 43.5941 520.644 42.3271C518.367 40.5967 518.279 37.2375 516.181 35.6058C511.378 31.87 506.549 26.7914 500.795 24.5786C497.89 23.461 496.581 20.4113 493.444 20.0627C488.769 19.5433 481.702 16.3103 477.953 13.499C474.606 10.9883 465.995 11.5561 461.833 11.5561C457.729 11.5561 452.316 7.38644 449.335 5.35986C446.003 3.09384 439.438 2.65901 435.42 2.15673C429.448 1.41017 422.624 1.15903 416.674 1.15903C409.536 1.15903 400.754 0.0735331 394.252 3.5745C390.701 5.48634 385.645 6.17229 381.702 7.35525C376.694 8.85768 371.501 11.3715 366.474 12.4487C362.076 13.3913 356.651 15.5889 352.664 17.6998C347.98 20.1793 342.316 20.1882 337.488 22.1632C328.85 25.6971 321.793 31.5368 313.229 35.0807C310.271 36.3043 307.321 37.643 305.825 40.5418C302.345 47.2829 296.452 54.7194 294.745 62.071C292.254 72.8015 286.272 83.319 286.028 94.5224C285.534 117.25 291.469 140.816 307.978 157.325C315.044 164.391 322.443 173.098 330.977 178.381C336.13 181.572 341.556 182.988 346.94 185.68C353.831 189.125 360.617 193.005 367.944 195.447C379.99 199.462 392.012 202.938 404.176 206.474C416.76 210.132 431.374 208.575 443.874 205.897C450.343 204.511 455.087 202.953 461.203 200.173C467.611 197.26 474.477 194.947 480.737 191.877C490.834 186.923 500.642 181.254 510.562 176.018C517.539 172.336 520.222 165.834 525.58 160.475C531.575 154.481 539.081 147.514 541.438 139.156C543.492 131.875 550.68 124.09 550.68 116.472C550.68 107.594 550.661 98.9203 549.683 90.1115C548.182 76.6069 542.1 61.4765 535.085 49.7836C532.101 44.8104 528.629 32.4924 521.38 31.405C518.226 30.932 515.509 28.4877 512.4 27.6767C506.488 26.1345 500.754 23.7779 494.914 21.9531" stroke="white" stroke-linecap="round"/>
<path d="M397.959 172.647C400.678 172.987 402.771 174.62 405.266 175.452C406.206 175.765 406.955 176.56 407.824 176.972C408.138 177.121 408.571 177.009 408.85 177.208C409.697 177.814 406.779 176.925 405.773 176.654C404.12 176.209 402.473 175.769 400.811 175.358C400.181 175.202 398.443 174.522 398.902 174.98C400.334 176.412 403.412 177.117 405.243 177.715C407.062 178.309 408.932 178.762 410.853 178.799C411.66 178.815 411.088 178.751 410.5 178.599C407.869 177.917 405.293 177.044 402.662 176.359C401.823 176.142 400.907 175.912 400.127 175.523C399.145 175.032 402.286 175.926 403.369 176.112C404.235 176.261 406.71 176.989 404.441 176.277C403.495 175.98 402.55 175.671 401.613 175.346C401.368 175.261 400.656 175.096 400.905 175.028C401.976 174.736 404.25 176.446 405.196 176.913C405.489 177.058 405.9 177.124 406.103 177.408C406.229 177.584 405.665 177.436 405.455 177.385C404.321 177.108 403.218 176.716 402.178 176.183C399.882 175.006 403.345 175.924 403.993 176.112C404.867 176.365 404.538 176.021 404.1 175.499C404.001 175.382 402.274 173.937 403.239 174.226C403.525 174.312 404.591 174.568 404.701 174.91C404.976 175.77 402.974 175.199 402.721 175.145C401.958 174.984 401.224 174.707 400.457 174.568C399.955 174.477 401.467 174.789 401.919 175.028C402.772 175.478 403.523 176.037 404.43 176.371C404.772 176.497 405.235 176.974 404.489 176.701C403.219 176.237 402.032 175.571 400.858 174.91C400.355 174.626 400.011 174.415 400.929 174.839C402.125 175.392 405.594 177.23 404.335 176.843C404.173 176.793 402.673 176.137 402.697 176.088C402.727 176.028 407.612 177.997 407.977 178.092C408.247 178.162 410.502 178.334 410.405 178.281C409.203 177.62 407.978 177.004 406.799 176.301C406.429 176.08 405.547 175.968 405.29 175.711C404.802 175.224 407.016 175.983 407.247 176.029C407.875 176.155 406.003 175.716 405.384 175.546C405.053 175.455 404.175 175.435 404.418 175.193C404.918 174.692 407.929 176.052 408.708 176.253C410.065 176.604 411.341 176.282 409.368 175.452C408.769 175.2 407.731 175.405 407.082 175.405C405.973 175.405 404.971 175.151 403.923 174.815C402.591 174.389 401.151 174.508 399.915 173.802C399.331 173.468 398.759 173.425 398.277 172.847C398.085 172.617 398.095 172.057 398.477 172.057C399.844 172.057 401.4 172.878 402.626 173.401C404.979 174.404 407.203 175.847 409.462 177.055C411.736 178.27 413.654 178.799 416.204 178.799" stroke="white" stroke-linecap="round"/>
<ellipse cx="134.725" cy="105.632" rx="98.9921" ry="130.352" transform="rotate(90 134.725 105.632)" fill="white"/>
<path d="M263.79 107.184C263.79 102.829 261.998 98.906 261.9 94.6868C261.837 91.9877 262.42 89.49 260.534 87.3354C255.663 81.7682 254.675 73.0619 251.502 66.5413C248.753 60.8904 244.064 54.8806 240.16 50.0005C238.827 48.3336 237.312 46.5941 235.644 45.3271C233.367 43.5967 233.279 40.2375 231.181 38.6058C226.378 34.87 221.549 29.7914 215.795 27.5786C212.89 26.461 211.581 23.4113 208.444 23.0627C203.769 22.5433 196.702 19.3103 192.953 16.499C189.606 13.9883 180.995 14.5561 176.833 14.5561C172.729 14.5561 167.316 10.3864 164.335 8.35986C161.003 6.09384 154.438 5.65901 150.42 5.15673C144.448 4.41017 137.624 4.15903 131.674 4.15903C124.536 4.15903 115.754 3.07353 109.252 6.5745C105.701 8.48634 100.645 9.17229 96.702 10.3552C91.6939 11.8577 86.5012 14.3715 81.4741 15.4487C77.0756 16.3913 71.6511 18.5889 67.6638 20.6998C62.9802 23.1793 57.3161 23.1882 52.4884 25.1632C43.8498 28.6971 36.7929 34.5368 28.2286 38.0807C25.2715 39.3043 22.3208 40.643 20.8246 43.5418C17.3454 50.2829 11.4516 57.7194 9.74496 65.071C7.25395 75.8015 1.2718 86.319 1.02825 97.5224C0.534173 120.25 6.46921 143.816 22.9776 160.325C30.0439 167.391 37.4427 176.098 45.9771 181.381C51.1304 184.572 56.5562 185.988 61.9402 188.68C68.8306 192.125 75.6174 196.005 82.9443 198.447C94.9898 202.462 107.012 205.938 119.176 209.474C131.76 213.132 146.374 211.575 158.874 208.897C165.343 207.511 170.087 205.953 176.203 203.173C182.611 200.26 189.477 197.947 195.737 194.877C205.834 189.923 215.642 184.254 225.562 179.018C232.539 175.336 235.222 168.834 240.58 163.475C246.575 157.481 254.081 150.514 256.438 142.156C258.492 134.875 265.68 127.09 265.68 119.472C265.68 110.594 265.661 101.92 264.683 93.1115C263.182 79.6069 257.1 64.4765 250.085 52.7836C247.101 47.8104 243.629 35.4924 236.38 34.405C233.226 33.932 230.509 31.4877 227.4 30.6767C221.488 29.1345 215.754 26.7779 209.914 24.9531" stroke="white" stroke-linecap="round"/>
<path d="M112.959 175.647C115.678 175.987 117.771 177.62 120.266 178.452C121.206 178.765 121.955 179.56 122.824 179.972C123.138 180.121 123.571 180.009 123.85 180.208C124.697 180.814 121.779 179.925 120.773 179.654C119.12 179.209 117.473 178.769 115.811 178.358C115.181 178.202 113.443 177.522 113.902 177.98C115.334 179.412 118.412 180.117 120.243 180.715C122.062 181.309 123.932 181.762 125.853 181.799C126.66 181.815 126.088 181.751 125.5 181.599C122.869 180.917 120.293 180.044 117.662 179.359C116.823 179.142 115.907 178.912 115.127 178.523C114.145 178.032 117.286 178.926 118.369 179.112C119.235 179.261 121.71 179.989 119.441 179.277C118.495 178.98 117.55 178.671 116.613 178.346C116.368 178.261 115.656 178.096 115.905 178.028C116.976 177.736 119.25 179.446 120.196 179.913C120.489 180.058 120.9 180.124 121.103 180.408C121.229 180.584 120.665 180.436 120.455 180.385C119.321 180.108 118.218 179.716 117.178 179.183C114.882 178.006 118.345 178.924 118.993 179.112C119.867 179.365 119.538 179.021 119.1 178.499C119.001 178.382 117.274 176.937 118.239 177.226C118.525 177.312 119.591 177.568 119.701 177.91C119.976 178.77 117.974 178.199 117.721 178.145C116.958 177.984 116.224 177.707 115.457 177.568C114.955 177.477 116.467 177.789 116.919 178.028C117.772 178.478 118.523 179.037 119.43 179.371C119.772 179.497 120.235 179.974 119.489 179.701C118.219 179.237 117.032 178.571 115.858 177.91C115.355 177.626 115.011 177.415 115.929 177.839C117.125 178.392 120.594 180.23 119.335 179.843C119.173 179.793 117.673 179.137 117.697 179.088C117.727 179.028 122.612 180.997 122.977 181.092C123.247 181.162 125.502 181.334 125.405 181.281C124.203 180.62 122.978 180.004 121.799 179.301C121.429 179.08 120.547 178.968 120.29 178.711C119.802 178.224 122.016 178.983 122.247 179.029C122.875 179.155 121.003 178.716 120.384 178.546C120.053 178.455 119.175 178.435 119.418 178.193C119.918 177.692 122.929 179.052 123.708 179.253C125.065 179.604 126.341 179.282 124.368 178.452C123.769 178.2 122.731 178.405 122.082 178.405C120.973 178.405 119.971 178.151 118.923 177.815C117.591 177.389 116.151 177.508 114.915 176.802C114.331 176.468 113.759 176.425 113.277 175.847C113.085 175.617 113.095 175.057 113.477 175.057C114.844 175.057 116.4 175.878 117.626 176.401C119.979 177.404 122.203 178.847 124.462 180.055C126.736 181.27 128.654 181.799 131.204 181.799" stroke="white" stroke-linecap="round"/>
</svg>
