<svg width="500" height="256" viewBox="0 0 257 132" fill="none" xmlns="http://www.w3.org/2000/svg">
<path d="M12.6437 17.65C13.3246 31.09 14.6519 44.5315 14.6519 58.2533C14.6519 66.4832 20.3982 115.511 22.9757 121.518" stroke="black" stroke-width="5.93583" stroke-linecap="round"/>
<path d="M3 31.6086C12.6438 30.1225 22.1417 17.65 31.7867 17.65C34.4138 17.65 36.1328 23.2612 38.473 25.8983" stroke="black" stroke-width="5.93583" stroke-linecap="round"/>
<path d="M31.8267 18.0651C30.8062 34.9255 32.1743 52.7211 32.1743 69.8537C32.5068 71.8586 40.348 126.789 40.348 128.872" stroke="black" stroke-width="5.93583" stroke-linecap="round"/>
<path d="M43.6386 27.5054C43.6386 39.3502 43.5988 72.0118 43.6386 83.8565C43.657 89.3519 37.3476 109.725 38.6497 114.952" stroke="black" stroke-width="5.93583" stroke-linecap="round"/>
<path d="M43.6375 41.4672C44.7658 50.7511 47.4659 60.057 49.67 68.8871C51.1266 74.7225 52.8327 80.5172 55.3279 85.5894C56.37 87.7078 57.0484 90.1354 58.213 92.1179C58.7355 93.0073 59.4778 93.8322 59.8242 94.8381" stroke="black" stroke-width="5.93583" stroke-linecap="round"/>
<path d="M43.6375 81.2882C46.9172 81.0519 49.3348 79.2355 52.5918 79.2355" stroke="black" stroke-width="5.93583" stroke-linecap="round"/>
<path d="M59.1013 27.937C58.6155 49.2773 59.4174 70.9094 63.6452 91.5825C64.6359 96.4266 66.3566 101.094 67.2036 105.97C67.3169 106.622 67.242 107.252 67.153 107.893" stroke="black" stroke-width="5.93583" stroke-linecap="round"/>
<path d="M50.111 43.5459C57.2042 38.4952 82.5434 19.2459 85.6871 40.8927C86.8906 49.1793 80.0731 55.0595 75.2997 58.1109C72.491 59.9064 62.0556 47.8252 59.4272 45.8729" stroke="black" stroke-width="5.93583" stroke-linecap="round"/>
<path d="M91.5103 40.6451C92.2104 59.1151 97.1997 75.6204 101.673 92.8588C103.191 98.7093 103.22 104.296 103.22 110.438" stroke="black" stroke-width="5.93583" stroke-linecap="round"/>
<path d="M82.9003 24.631C90.0777 38.0936 99.0144 49.3334 106.193 62.6932C111.299 72.197 115.917 83.156 122.506 90.7289" stroke="black" stroke-width="5.93583" stroke-linecap="round"/>
<path d="M98.7456 80.0565C101.163 76.0925 105.775 69.7929 110.111 69.7929" stroke="black" stroke-width="5.93583" stroke-linecap="round"/>
<path d="M126.613 30.4174C124.882 38.4105 124.962 46.8634 124.917 55.1164C124.884 61.0931 124.361 67.0178 123.589 72.8994C123.205 75.8253 122.859 78.797 122.617 81.7507C122.561 82.441 122.272 82.8256 122.632 83.3151" stroke="black" stroke-width="5.93583" stroke-linecap="round"/>
<path d="M123.157 57.3289C126.84 58.2261 137.758 62.1156 141.432 62.8503C141.553 62.8746 135.138 59.6281 134.693 59.4251C133.3 58.7897 131.875 58.4396 130.412 58.2765C129.957 58.2257 130.098 57.8955 130.448 57.8406C132.479 57.522 134.653 57.9273 136.703 57.8549C138.633 57.7868 140.728 57.593 142.638 58.0997C143.101 58.2226 143.219 58.4806 143.552 58.0396" stroke="black" stroke-width="5.93583" stroke-linecap="round"/>
<path d="M145.802 16.0123C144.88 21.1191 144.759 26.3488 144.462 31.5477C143.789 43.3153 142.407 55.084 142.108 66.8637C141.83 77.7954 142.826 88.8513 142.018 99.7694" stroke="black" stroke-width="5.93583" stroke-linecap="round"/>
<path d="M160.067 43.1424C154.462 50.6042 147.215 57.9296 149.435 69.297C152.142 83.1571 166.653 82.849 173.69 75.2834C177.398 71.297 177.31 64.5972 177.248 58.8351C177.184 52.8766 175.167 48.2188 172.14 44.1886C169.305 40.4148 163.43 39.0437 160.351 43.1424" stroke="black" stroke-width="5.93583" stroke-linecap="round"/>
<path d="M183.864 22.7765C182.91 33.7422 182.579 45.0041 182.826 56.0359C182.927 60.5387 183.23 65.0314 183.523 69.5169C183.617 70.9583 183.321 92.9933 184.002 94.3487C184.889 96.1134 195.752 60.6086 196.306 59.6821C200.283 53.0235 204.552 45.6471 207.689 38.1826C209.155 34.6913 210.014 31.1244 210.154 27.1398C210.248 24.4452 209.619 27.5256 209.516 28.55C208.401 39.658 209.589 51.1636 210.412 62.2268C210.805 67.5131 214.255 99.7841 215.336 104.925" stroke="black" stroke-width="5.93583" stroke-linecap="round"/>
<path d="M192.352 10.9226C193.789 11.2076 213.087 11.0366 214.465 11.6308" stroke="black" stroke-width="5.93583" stroke-linecap="round"/>
<path d="M251.655 40.6436C252.748 57.4191 251.251 74.3161 252.227 91.0903C252.475 95.3533 253.492 99.4225 253.492 103.69" stroke="black" stroke-width="5.93583" stroke-linecap="round"/>
<path d="M251.656 40.0033C249.656 33.6276 246.802 25.4513 241.217 21.8001C236.388 18.6432 226.896 32.9884 225.558 36.2662C222.51 43.733 221.107 47.3567 223.856 54.9515C225.384 59.172 230.437 61.5474 234.522 61.7024C238.283 61.8451 242.129 61.4846 245.529 59.7736C247.632 58.7151 250.348 52.9148 251.656 51.5245C253.419 49.6523 245.544 66.7487 245.075 67.6094C241.392 74.373 237.136 80.703 233.501 87.5002C232.027 90.2557 231.702 92.9059 229.643 95.336C227.401 97.9823 224.083 101.402 224.083 105.101" stroke="black" stroke-width="5.93583" stroke-linecap="round"/>
</svg>
