<svg width="692" height="356" viewBox="0 0 692 356" fill="none" xmlns="http://www.w3.org/2000/svg">
<path d="M29.4105 48.3366C31.2751 85.1434 34.9102 121.955 34.9102 159.533C34.9102 182.072 50.647 316.341 57.7058 332.791" stroke="black" stroke-width="5.93583" stroke-linecap="round"/>
<path d="M3 86.5637C29.4106 82.4939 55.4217 48.3366 81.8355 48.3366C89.0304 48.3366 93.738 63.7035 100.147 70.9253" stroke="black" stroke-width="5.93583" stroke-linecap="round"/>
<path d="M81.9452 49.4733C79.1506 95.6473 82.8971 144.383 82.8972 191.302C83.8078 196.793 105.282 347.226 105.282 352.931" stroke="black" stroke-width="5.93583" stroke-linecap="round"/>
<path d="M114.293 75.3265C114.293 107.765 114.185 197.212 114.293 229.65C114.344 244.7 97.0648 300.494 100.631 314.808" stroke="black" stroke-width="5.93583" stroke-linecap="round"/>
<path d="M114.29 113.563C117.38 138.988 124.775 164.473 130.811 188.655C134.8 204.636 139.473 220.506 146.306 234.396C149.16 240.198 151.018 246.846 154.207 252.275C155.638 254.711 157.671 256.97 158.619 259.725" stroke="black" stroke-width="5.93583" stroke-linecap="round"/>
<path d="M114.29 222.617C123.272 221.97 129.893 216.995 138.813 216.995" stroke="black" stroke-width="5.93583" stroke-linecap="round"/>
<path d="M156.64 76.5085C155.309 134.951 157.505 194.194 169.084 250.809C171.797 264.075 176.509 276.857 178.829 290.211C179.139 291.997 178.934 293.723 178.69 295.477" stroke="black" stroke-width="5.93583" stroke-linecap="round"/>
<path d="M132.019 119.255C151.444 105.423 220.839 52.707 229.448 111.989C232.744 134.683 214.073 150.787 201.001 159.143C193.309 164.06 164.73 130.975 157.532 125.628" stroke="black" stroke-width="5.93583" stroke-linecap="round"/>
<path d="M245.396 111.311C247.313 161.893 260.976 207.095 273.226 254.304C277.384 270.327 277.463 285.627 277.463 302.446" stroke="black" stroke-width="5.93583" stroke-linecap="round"/>
<path d="M221.816 67.4549C241.472 104.324 265.946 135.105 285.605 171.692C299.589 197.72 312.237 227.732 330.281 248.471" stroke="black" stroke-width="5.93583" stroke-linecap="round"/>
<path d="M265.21 219.244C271.832 208.388 284.46 191.136 296.335 191.136" stroke="black" stroke-width="5.93583" stroke-linecap="round"/>
<path d="M341.528 83.3015C336.788 105.191 337.007 128.341 336.883 150.942C336.793 167.31 335.361 183.536 333.247 199.643C332.196 207.656 331.247 215.795 330.585 223.884C330.43 225.774 329.639 226.827 330.626 228.168" stroke="black" stroke-width="5.93583" stroke-linecap="round"/>
<path d="M332.064 157.002C342.149 159.459 372.051 170.111 382.112 172.123C382.444 172.189 364.876 163.298 363.657 162.742C359.841 161.002 355.94 160.043 351.933 159.597C350.685 159.458 351.073 158.553 352.031 158.403C357.594 157.53 363.545 158.64 369.162 158.442C374.447 158.256 380.184 157.725 385.414 159.113C386.682 159.449 387.007 160.156 387.919 158.948" stroke="black" stroke-width="5.93583" stroke-linecap="round"/>
<path d="M394.079 43.8514C391.554 57.8369 391.222 72.1592 390.409 86.3969C388.568 118.624 384.782 150.854 383.963 183.114C383.202 213.052 385.929 243.329 383.717 273.23" stroke="black" stroke-width="5.93583" stroke-linecap="round"/>
<path d="M433.147 118.15C417.796 138.585 397.949 158.647 404.029 189.778C411.443 227.735 451.182 226.891 470.453 206.172C480.607 195.255 480.368 176.907 480.199 161.127C480.023 144.808 474.5 132.053 466.208 121.015C458.444 110.681 442.355 106.926 433.923 118.15" stroke="black" stroke-width="5.93583" stroke-linecap="round"/>
<path d="M498.317 62.376C495.703 92.407 494.798 123.249 495.474 153.461C495.749 165.792 496.58 178.096 497.382 190.38C497.639 194.327 496.829 254.673 498.695 258.385C501.124 263.217 530.874 165.984 532.389 163.446C543.281 145.211 554.974 125.01 563.563 104.567C567.58 95.0061 569.932 85.2377 570.314 74.3253C570.573 66.946 568.849 75.3821 568.567 78.1875C565.513 108.608 568.768 140.117 571.022 170.415C572.099 184.892 581.547 273.27 584.507 287.35" stroke="black" stroke-width="5.93583" stroke-linecap="round"/>
<path d="M521.563 29.9129C525.497 30.6932 578.348 30.2251 582.12 31.8523" stroke="black" stroke-width="5.93583" stroke-linecap="round"/>
<path d="M683.971 111.307C686.964 157.249 682.865 203.523 685.535 249.461C686.214 261.136 689 272.28 689 283.966" stroke="black" stroke-width="5.93583" stroke-linecap="round"/>
<path d="M683.974 109.553C678.495 92.093 670.679 69.7012 655.385 59.7021C642.161 51.0566 616.166 90.3425 612.501 99.3191C604.152 119.768 600.31 129.692 607.839 150.491C612.024 162.049 625.861 168.554 637.05 168.979C647.348 169.37 657.882 168.382 667.193 163.697C672.953 160.798 680.39 144.913 683.974 141.106C688.8 135.978 667.234 182.799 665.95 185.156C655.864 203.679 644.209 221.014 634.253 239.629C630.218 247.175 629.326 254.433 623.688 261.089C617.548 268.336 608.461 277.701 608.461 287.83" stroke="black" stroke-width="5.93583" stroke-linecap="round"/>
</svg>
