<svg width="390" height="151" viewBox="0 0 390 151" fill="none" xmlns="http://www.w3.org/2000/svg">
<path d="M333.519 9.91158C311.88 -0.39253 304.996 23.9335 296.237 38.2672C292.031 45.1492 287.205 53.1026 287.205 61.3717C287.205 71.3515 288.874 81.0185 289.095 90.9875C289.341 102.037 294.822 115.356 301.068 124.279C303.847 128.25 306.476 130.832 309.889 134.151C314.721 138.849 318.407 140.559 324.592 143.183C343.919 151.382 363.186 143.448 372.219 125.382C379.939 109.942 386.449 94.4183 386.449 76.8097C386.449 68.8578 385.236 60.1813 383.404 52.4449C381.472 44.289 379.409 34.6168 374.162 27.8701C371.419 24.3431 368.457 18.343 366.6 14.1649C365.143 10.8862 357.007 5.31753 353.578 5.18565C344.396 4.83249 336.47 1.40491 326.903 1.40491" stroke="black" stroke-linecap="round"/>
<path d="M324.469 66.5976C325.808 63.5185 327.979 60.867 329.281 57.7411C329.483 57.2579 329.68 56.7676 329.793 56.2565C329.991 55.3607 329.357 55.9208 329.077 56.2053C326.971 58.3378 325.228 61.0432 323.855 63.6796C322.358 66.554 321.539 68.7378 320.553 71.8194C320.288 72.648 318.451 77.3215 319.247 78.6282C320.046 79.9385 321.541 76.5213 322.319 75.1982C325.172 70.3443 327.834 65.3054 330.203 60.1984C331.316 57.7982 333.949 50.7777 331.892 52.4425C324.826 58.1625 320.178 68.5759 316.304 76.5548C316.158 76.8558 313.248 82.8358 313.744 81.9558C317.741 74.8701 322.346 68.067 325.493 60.5311C325.746 59.9257 326.392 58.1474 325.928 58.6114C323.392 61.1474 321.305 66.0055 319.503 68.9013C316.577 73.6044 313.553 78.2354 310.493 82.8516C308.237 86.2555 310.712 82.9603 311.005 82.5701C318.674 72.3604 325.639 61.5812 332.353 50.7275C333.263 49.2567 336.73 44.7703 337.063 42.4853C337.355 40.4833 333.906 45.0503 332.583 46.5808C324.301 56.1617 317.214 66.8081 310.544 77.5531C310.074 78.3103 309.578 79.0559 309.188 79.8568C308.496 81.274 311.168 77.398 312.055 76.0941C317.594 67.9473 322.735 59.5352 327.797 51.0859C329.855 47.6497 332.711 43.532 334.298 39.6953C335.284 37.3132 331.276 43.8741 329.844 46.0177C324.264 54.3719 318.658 62.7001 312.848 70.8979C310.572 74.1101 307.885 77.3342 305.988 80.8295C297.895 95.7469 343.79 24.4798 333.607 38.0571C328.778 44.4961 323.434 50.4158 318.121 56.4612C315.197 59.7888 312.207 63.1101 309.776 66.828C308.683 68.4998 312.298 63.729 313.514 62.1437C322.083 50.9648 330.844 39.5862 336.909 26.7944C341.59 16.9213 324.619 44.8736 318.07 53.62C315.982 56.4077 313.731 59.1621 311.261 61.6318C309.851 63.0421 310.257 62.1427 311.133 60.7103C317.2 50.791 324.529 41.4139 329.947 31.1203C330.514 30.0436 330.194 30.238 329.409 30.8131C326.922 32.6372 324.752 35.0013 322.575 37.1612C316.608 43.0815 310.445 48.8886 305.22 55.4886C304.757 56.0732 304.129 56.6893 305.169 55.079C308.022 50.6644 311.252 46.4537 314.435 42.2805C318.319 37.1883 322.562 32.2884 326.184 26.9992C326.488 26.5547 327.196 26.0836 326.978 25.5914C326.8 25.1913 326.213 26.0278 325.877 26.3081C324.879 27.1396 323.935 28.0338 322.984 28.919C318.308 33.2736 305.374 47.2203 308.829 41.8454C312.405 36.283 318.66 32.048 321.525 26.0777C321.9 25.2984 322.488 23.1848 321.449 22.5197C319.337 21.1681 315.146 25.395 314.154 26.2569C311.479 28.5788 304.675 36.6935 306.577 33.7056C310.73 27.1791 316.487 21.2534 320.22 14.5335C322.577 10.2913 307.092 28.6572 309.623 24.5163C312.222 20.2639 316.535 16.4689 318.633 11.9738C319.709 9.66718 315.274 15.8079 313.77 17.8611C312.705 19.3142 309.911 21.9802 309.469 23.7484C309.309 24.3892 310.656 23.1018 311.082 22.5965C311.189 22.4689 312.439 21.3684 312.439 21.2399C312.439 19.2365 310.811 24.9227 309.7 26.5896C306.096 31.9948 303.075 38.3216 300.203 44.1235C299.507 45.5292 296.672 51.9313 299.691 46.9904C303.908 40.091 308.502 33.3721 312.439 26.3081C313.309 24.7457 313.934 23.098 315.177 21.7774C316.507 20.3647 312.236 24.31 310.826 25.6426C308.198 28.1261 305.609 30.4819 303.633 33.5264C303.074 34.3886 302.478 36.3201 301.79 37.0076C300.603 38.1948 303.263 33.9869 304.094 32.5281C305.902 29.3561 307.698 26.1239 309.725 23.0829C310.303 22.2167 310.489 21.5316 310.877 20.6C312.166 17.5068 307.05 26.1094 305.348 28.9958C304.559 30.334 301.903 33.7105 303.377 33.2192C304.996 32.6795 306.832 28.683 307.678 27.2808C312.168 19.8368 299.607 42.7133 296.364 50.7787C296.109 51.4125 295.614 53.3423 296.031 52.8009C298.255 49.9094 299.64 44.808 300.408 41.2567C300.477 40.9398 300.553 39.994 300.408 40.284C299.834 41.4326 299.454 42.8743 299.077 44.0723C297.736 48.3338 296.938 52.6448 296.133 57.0244C295.925 58.1612 295.638 58.7629 295.084 59.6864C294.011 61.4743 295.827 55.5826 296.261 53.5432C296.428 52.7577 297.073 48.0918 297.004 48.2702C295.221 52.8254 294.362 58.0391 293.036 62.7581C292.799 63.6004 291.626 67.8105 293.087 64.5499C294.743 60.8564 296.302 56.8413 297.183 52.8777C297.793 50.1302 297.193 50.8498 295.903 52.8777C294.997 54.3016 294.498 55.9193 293.599 57.3315C293.239 57.8971 292.441 59.8103 292.78 57.9459C293.441 54.309 294.951 50.9383 295.954 47.3999C296.446 45.6662 296.299 44.1924 297.285 42.6389C298.246 41.1242 300.574 38.1585 298.795 42.1014C297.421 45.1481 295.636 47.9679 294.29 50.9579C292.708 54.4736 291.428 57.9595 290.169 61.555C289.594 63.1999 288.441 68.3021 288.992 66.6488C290.26 62.8435 290.708 58.8309 292.115 55.079C292.703 53.5097 293.273 51.9829 294.06 50.4972C294.661 49.3613 295.904 48.3794 296.338 47.2207C297.538 44.0204 297.116 46.1009 296.108 48.1166C293.014 54.3046 292.678 62.6975 292.678 69.618C292.678 74.9745 293.556 79.5372 294.725 84.669C295.513 88.1241 297.971 91.2975 298.642 94.6518C298.874 95.8135 298.044 92.3318 297.464 91.2986C296.525 89.6242 295.215 88.0634 294.111 86.4864C291.826 83.222 291.177 78.7035 291.296 74.8398C291.435 70.2951 293.678 66.3954 294.47 62.0414C294.59 61.3763 294.745 59.2957 294.214 61.3246C293.21 65.1548 291.587 68.7278 291.398 72.7409C291.104 78.9949 293.058 84.3938 294.06 90.4027C294.789 94.7751 295.994 97.905 297.746 101.896C299.182 105.166 300.557 108.452 301.995 111.648C303.811 115.683 300.193 102.985 299.333 98.6449C297.953 91.6796 297.446 84.5089 295.801 77.6043C295.665 77.0342 293.532 70.7471 296.031 73.7647C299.383 77.8125 301.802 82.9872 304.299 87.5359C307.831 93.9701 311.19 100.509 314.87 106.862C317.246 110.963 316.625 106.505 316.636 103.764C316.681 92.5637 316.327 81.3467 315.92 70.1556C315.662 63.0647 315.461 55.9064 314.793 48.8334C314.671 47.5316 314.326 46.6007 315.126 49.5757C318.991 63.946 323.361 78.1781 327.899 92.3481C328.765 95.0513 331.551 103.097 330.561 100.437C328.444 94.7468 326.625 88.9643 324.93 83.1332C321.758 72.2206 319.139 61.1749 316.15 50.2156C315.77 48.8224 315.445 47.4043 314.896 46.0689C314.391 44.8426 313.809 45.2215 313.411 46.1713C311.349 51.0973 311.47 57.2001 311.108 62.4509" stroke="black" stroke-width="6" stroke-linecap="round"/>
<path d="M333.223 104.839C342.178 95.7795 349.072 83.6759 355.185 72.6385C360.034 63.8845 365.101 53.7063 365.834 43.458C365.881 42.7912 365.876 40.3442 364.554 41.6662C362.363 43.8565 361.017 46.9385 359.895 49.7037C355.057 61.6243 352.692 74.3183 351.858 87.1263C351.212 97.0281 353.365 106.772 352.83 116.563C352.604 120.704 351.195 118.773 350.603 115.539C347.599 99.1055 347.943 82.1623 349.759 65.6249C350.239 61.2517 352.047 55.1283 351.141 50.5996C350.878 49.2871 350.046 53.0704 349.81 54.3879C347.197 68.9717 344.59 83.5478 342.284 98.1842C341.84 101.003 341.804 103.924 340.902 106.631C340.851 106.786 340.473 106.733 340.416 106.58C339.467 104.061 338.506 95.9979 338.394 94.9846C337.416 86.1816 337.165 81.0197 337.165 72.1266C337.165 64.6817 338.404 54.8959 334.964 70.9491C330.584 91.3862 325.968 112.129 324.213 132.996C323.421 142.415 324.416 133.486 324.008 139.498C323.668 144.515 323.633 129.447 323.445 124.421C323.042 113.653 322.708 103.651 321.96 92.8601C321.173 81.4991 320.487 69.6276 317.046 58.6626C316.788 57.8407 314.108 49.6404 311.824 52.3657C306.643 58.5469 303.625 67.6406 301.483 75.2494C300.193 79.8319 298.072 87.4944 300.152 92.3481C301.339 95.1188 302.154 86.625 302.609 83.6452C305.326 65.8647 308.759 48.2414 311.696 30.506C312.796 23.8624 311.522 31.3644 311.389 32.7073C309.526 51.4908 308.013 70.3856 308.343 89.2765C308.376 91.1571 308.431 96.7692 308.701 94.9078C309.672 88.2183 308.814 79.8971 308.727 73.3296C308.63 65.9883 308.543 60.3114 308.112 53.1592C308.024 51.6973 307.885 50.2384 307.729 48.7822C307.647 48.0234 307.846 47.0817 307.319 46.5296C306.956 46.1494 306.402 47.071 306.039 47.4511C304.665 48.8903 302.624 51.4058 301.534 52.8265C297.745 57.7638 292.184 64.041 291.5 70.5395C291.391 71.5748 292.223 78.2173 293.292 74.3791C295.029 68.1402 296.632 61.9727 299 55.9237C304.934 40.7667 297.98 58.8902 301.79 49.2941C302.828 46.679 302.007 50.9909 301.995 51.649C301.793 62.231 301.675 73.0978 303.607 83.5428C304.115 86.2878 305.045 92.6564 307.421 94.8566C307.75 95.1613 308.373 94.3711 308.394 94.3447C309.488 92.9768 311.801 89.271 312.387 88.3038C317.729 79.4895 322.218 70.3409 326.517 60.9919C328.042 57.6736 328.495 55.3081 329.076 61.683C329.837 70.0281 330.054 78.4937 329.895 86.8704C329.882 87.5787 328.718 96.2105 330.075 91.657C333.71 79.4512 338.518 66.416 339.11 53.5944C339.364 48.0983 336.069 54.8829 335.604 56.0005C332.519 63.4046 330.824 71.4644 329.998 79.4217C329.765 81.6605 329.626 83.5964 329.87 85.7953C329.876 85.8547 330.331 89.1129 331.175 88.9181C332.167 88.6894 332.113 87.0911 332.353 86.1025C334.168 78.6227 335.154 70.8895 336.115 63.27C337.361 53.4032 338.837 43.204 338.752 33.2193C338.735 31.2835 337.603 31.2565 336.039 32.5537C327.478 39.6538 323.235 53.7217 322.831 64.3963C322.679 68.3934 323.114 70.954 324.597 74.5071C325.093 75.6959 327.252 79.9934 329.23 80.0104C330.946 80.0252 332.838 76.0967 333.018 75.7101C337.523 66.0517 339.571 55.1666 340.313 44.6099C340.695 39.1887 342.234 24.3534 335.066 21.2399C327.824 18.0943 321.398 26.6585 319.401 32.4002C315.361 44.0118 316.274 58.3202 320.169 69.8228C321.931 75.0282 326.666 86.2575 333.479 87.0751C342.503 88.1581 348.32 74.3288 350.527 68.287C353.45 60.2826 355.554 49.7921 356.311 41.3079C356.755 36.3421 357.68 26.1789 353.547 21.7774C347.934 15.8001 337.309 27.8938 334.759 31.3763C324.573 45.2845 321.961 62.0825 326.645 78.5258C327.373 81.0839 338.937 112.9 345.97 106.017C347.926 104.103 349.75 99.7999 350.527 97.6723C353.797 88.7146 355.937 79.0897 355.8 69.5157C355.654 59.3891 352.219 48.6911 346.892 40.0792C346.642 39.675 344.101 35.3238 342.796 36.2397C342.159 36.6869 340.797 39.2157 340.697 39.4137C337.447 45.8897 335.042 52.8464 332.865 59.7377C332.466 61.0004 326.273 75.7644 331.38 77.0412C332.441 77.3063 333.772 76.0027 334.247 75.4542C338.6 70.4269 341.59 63.7348 344.025 57.6643C347.57 48.8277 350.668 39.0536 349.682 29.4053C349.526 27.878 348.339 23.6412 347.967 25.1306C346.87 29.5178 346.837 35.9499 347.532 40.4632C347.589 40.8378 347.893 40.7959 348.197 40.7959C349.423 40.7959 348.741 30.9661 348.684 30.0964C348.598 28.7973 348.919 27.1445 347.967 26.2569C346.38 24.7783 344.93 29.4702 344.051 31.4531C339.027 42.7854 336.157 55.982 337.421 68.3894C338.076 74.8151 339.768 81.1997 341.209 87.4847C342.176 91.7021 342.837 91.0779 343.846 86.512C345.747 77.9059 346.925 67.5496 345.1 58.8162C344.232 54.6628 341.154 56.3057 338.624 58.1506C327.498 66.2631 328.213 82.3523 331.431 94.4471C332.51 98.5012 333.92 103.54 336.167 107.169C337.151 108.758 336.547 103.347 335.988 101.563C334.324 96.2574 324.638 79.2511 316.764 86.2816C315.171 87.7038 315.473 91.021 315.689 92.8345C316.346 98.342 318.996 103.157 322.165 107.604C323.869 109.994 325.687 112.316 327.848 114.31C329.991 116.289 328.353 114.7 326.926 113.363C325.605 112.124 310.026 97.3472 309.06 99.6944C308.38 101.344 309.575 103.751 310.186 105.172C311.923 109.213 314.327 113.008 315.971 117.075C317.405 120.621 309.991 112.258 307.396 109.447C303.848 105.604 299.732 101.405 298.104 96.29C297.842 95.4666 299.277 100.098 299.538 100.897C299.981 102.26 300.898 106.479 299.538 102.689C298.337 99.3442 296.363 96.4762 296.363 92.8601C296.363 91.6111 295.381 90.826 295.084 89.6348C294.7 88.0998 294.981 86.2449 294.981 84.669C294.981 83.6366 294.981 82.6042 294.981 81.5718C294.981 80.6565 294.981 80.2916 294.981 81.5974C294.981 83.8585 294.981 86.1195 294.981 88.3806C294.981 91.8102 296.189 94.6105 296.363 97.9282C296.415 98.9008 297.602 98.9928 297.72 99.8224C297.921 101.231 298.058 102.79 298.181 104.199C298.472 107.55 300.191 109.415 301.329 112.314C303.336 117.421 306.515 121.538 309.725 125.931C310.842 127.46 313.217 128.862 314.793 130.078C317.267 131.986 320 134.901 322.856 136.17C325.6 137.39 327.551 138.474 330.817 138.474C333.108 138.474 335.177 138.316 337.395 138.039C339.906 137.725 342.252 136.597 344.588 135.607C347.914 134.198 350.412 132.102 352.83 129.412C356.908 124.877 361.197 119.615 363.043 113.696C363.682 111.647 366.656 97.49 363.581 96.9044C356.582 95.5712 352.474 97.7802 347.506 102.792C344.573 105.751 339.725 111.039 339.725 115.59C339.725 116.165 340.577 115.809 340.697 115.488C342.077 111.788 340.913 104.968 339.417 101.461C338.203 98.6134 335.745 103.252 335.322 104.123C332.767 109.389 331.9 116.442 333.428 122.143C334.395 125.751 345.031 132.752 345.151 125.726C345.221 121.66 343.441 117.539 341.414 114.105C340.003 111.716 339.101 112.164 337.728 114.361C335.886 117.309 331.735 123 333.223 126.853C333.424 127.372 333.867 127.947 334.503 127.877C336.909 127.609 333.412 122.441 333.197 122.143C332.838 121.643 328.079 115.656 326.773 117.126C325.329 118.75 327.097 123.289 327.72 124.728C328.955 127.584 330.968 130.893 333.786 132.458C336.234 133.818 339.186 130.926 340.697 129.31C342.098 127.812 342.438 126.459 342.438 124.498C342.438 122.653 343.499 121.05 344.179 119.378C347.809 110.453 350.737 101.262 353.342 91.9898C354.848 86.6294 357.182 80.3378 357.182 74.6351C357.182 66.374 354.968 91.329 356.67 99.4129C357.094 101.428 357.12 97.0019 356.977 97.1603C356.277 97.9339 356.34 99.1536 356.158 100.181C355.585 103.42 355.21 106.706 354.955 109.984C354.615 114.344 356.958 106.319 357.079 105.966C360.517 95.9248 362.589 85.481 364.938 75.147C365.892 70.9468 366.501 66.3294 364.81 62.2206C363.218 58.3552 362.383 53.5297 361.431 49.4477C360.569 45.752 359.29 42.6783 358.001 39.1577C355.367 31.9644 351.166 26.3286 344.025 23.0829C341.351 21.8674 338.414 20.0624 335.424 20.0624C332.267 20.0624 329.11 20.0624 325.954 20.0624C323.296 20.0624 318.634 21.1063 316.995 18.4242C315.542 16.048 326.269 12.6905 328.257 12.6905C332.497 12.6905 336.216 11.769 340.365 11.769C343.369 11.769 347.034 11.8996 349.912 12.7929C352.851 13.7049 355.468 15.3899 358.308 16.6069C366.992 20.3287 368.507 30.8084 369.724 39.0553C371.085 48.2758 374.957 56.9533 376.431 66.2393C377.708 74.2846 379.15 85.2723 375.356 92.6809C372.225 98.7932 370.474 105.698 365.731 110.931C363.25 113.669 356.336 116.405 353.829 112.339C350.44 106.845 352.991 96.9868 353.752 91.1195C354.145 88.0869 354.439 84.5175 355.902 81.7254C358.086 77.5561 360.946 73.4819 363.427 69.4645C363.946 68.6243 364.093 68.0291 364.093 67.0584" stroke="black" stroke-width="12" stroke-linecap="round"/>
<path d="M371.004 67.9799C370.739 75.951 370.159 83.9745 368.777 91.8362C368.531 93.237 367.445 97.2735 367.344 95.8549C366.893 89.5422 368.375 83.0451 368.598 76.734C368.872 69.0003 365.961 78.2364 365.245 80.4456C363.276 86.5191 362.061 92.6606 362.609 99.0545C362.875 102.163 365.59 95.4535 365.885 94.7542C366.304 93.7602 366.514 92.3272 367.114 91.401C367.947 90.1125 367.914 94.3971 367.933 95.9317C368.016 102.603 367.662 109.294 366.909 115.923C366.789 116.977 366.619 118.024 366.448 119.071C366.414 119.28 366.444 119.536 366.295 119.686C366.16 119.821 366.443 118.937 366.397 119.122" stroke="black" stroke-width="12" stroke-linecap="round"/>
<path d="M361.789 50.9324C361.789 43.6302 362.397 35.9044 361.098 28.6887C360.982 28.0427 360.692 26.4584 360.228 26.9225C359.653 27.4968 360.283 28.5479 360.381 29.3542C361.076 35.0743 361.391 36.4932 361.866 43.0741C363.382 64.0793 359.817 88.4118 342.643 102.92C336.9 107.771 329.856 111.506 323.189 114.925C321.474 115.804 319.325 116.938 317.507 115.616C316.891 115.168 311.816 108.26 311.312 108.73C310.446 109.539 312.926 115.656 313.155 116.307C314.188 119.246 315.534 122.005 317.251 124.6C318.04 125.794 314.758 123.149 313.872 122.706C313.364 122.452 315.361 124.298 315.715 124.651" stroke="black" stroke-width="12" stroke-linecap="round"/>
<path d="M325.851 115.437C326.317 118.848 327.013 122.161 327.131 125.624C327.231 128.533 326.225 132.105 327.848 134.737C328.731 136.169 331.497 141.052 333.684 139.958C338.048 137.776 344.172 139.827 348.658 137.501C359.681 131.786 362.322 116.085 365.962 105.531C368.563 97.9863 371.034 91.3032 371.644 83.1845C372.531 71.3817 372.847 59.5387 372.847 47.7072" stroke="black" stroke-width="12" stroke-linecap="round"/>
<path d="M369.161 29.2773C371.352 31.6667 372.343 34.946 374.485 37.3404C378.994 42.3795 379.776 49.856 381.166 56.1797C383.208 65.4716 384.239 74.3633 383.137 83.9779C382.226 91.9335 380.177 100.7 376.508 107.885C371.968 116.776 369.265 128.567 359.127 132.945C354.682 134.864 350.283 138.053 345.561 139.037C342.57 139.66 339.437 141.699 336.448 141.699" stroke="black" stroke-width="12" stroke-linecap="round"/>
<path d="M48.5189 12.9116C26.8803 2.60747 19.9961 26.9335 11.2366 41.2672C7.0309 48.1492 2.20483 56.1026 2.20483 64.3717C2.20483 74.3515 3.87367 84.0185 4.09521 93.9875C4.34074 105.037 9.82158 118.356 16.0676 127.279C18.8474 131.25 21.4756 133.832 24.8893 137.151C29.7211 141.849 33.4069 143.559 39.5922 146.183C58.9192 154.382 78.1857 146.448 87.219 128.382C94.9389 112.942 101.449 97.4183 101.449 79.8097C101.449 71.8578 100.236 63.1813 98.4037 55.4449C96.4721 47.289 94.4093 37.6168 89.1619 30.8701C86.4187 27.3431 83.4573 21.343 81.6004 17.1649C80.1432 13.8862 72.0068 8.31753 68.5779 8.18565C59.3957 7.83249 51.4703 4.40491 41.9026 4.40491" stroke="black" stroke-linecap="round"/>
<path d="M39.4691 69.5976C40.8079 66.5185 42.9788 63.867 44.2813 60.7411C44.4827 60.2579 44.6804 59.7676 44.7933 59.2565C44.991 58.3607 44.3574 58.9208 44.0765 59.2053C41.9707 61.3378 40.2279 64.0432 38.8548 66.6796C37.3577 69.554 36.5389 71.7378 35.5528 74.8194C35.2876 75.648 33.4506 80.3215 34.2473 81.6282C35.0463 82.9385 36.5412 79.5213 37.319 78.1982C40.172 73.3443 42.8337 68.3054 45.2028 63.1984C46.3162 60.7982 48.9487 53.7777 46.8922 55.4425C39.8263 61.1625 35.1775 71.5759 31.3037 79.5548C31.1575 79.8558 28.2476 85.8358 28.744 84.9558C32.7411 77.8701 37.3461 71.067 40.493 63.5311C40.7458 62.9257 41.3921 61.1474 40.9281 61.6114C38.3921 64.1474 36.305 69.0055 34.5033 71.9013C31.5772 76.6044 28.5528 81.2354 25.4932 85.8516C23.2371 89.2555 25.712 85.9603 26.0051 85.5701C33.6743 75.3604 40.6388 64.5812 47.3529 53.7275C48.2628 52.2567 51.7296 47.7703 52.0628 45.4853C52.3547 43.4833 48.9065 48.0503 47.5833 49.5808C39.3005 59.1617 32.2137 69.8081 25.5444 80.5531C25.0744 81.3103 24.5785 82.0559 24.1877 82.8568C23.4964 84.274 26.1679 80.398 27.0546 79.0941C32.5944 70.9473 37.7354 62.5352 42.7967 54.0859C44.855 50.6497 47.7107 46.532 49.2983 42.6953C50.284 40.3132 46.2764 46.8741 44.8445 49.0177C39.2638 57.3719 33.6576 65.7001 27.8481 73.8979C25.5717 77.1101 22.8845 80.3342 20.9881 83.8295C12.8947 98.7469 58.7901 27.4798 48.6072 41.0571C43.7779 47.4961 38.4337 53.4158 33.1211 59.4612C30.1969 62.7888 27.2074 66.1101 24.7765 69.828C23.6834 71.4998 27.2984 66.729 28.5136 65.1437C37.0832 53.9648 45.8441 42.5862 51.9092 29.7944C56.5904 19.9213 39.6191 47.8736 33.0699 56.62C30.9825 59.4077 28.7308 62.1621 26.2611 64.6318C24.8508 66.0421 25.257 65.1427 26.1331 63.7103C32.2003 53.791 39.5291 44.4139 44.9468 34.1203C45.5135 33.0436 45.1936 33.238 44.4093 33.8131C41.9219 35.6372 39.7518 38.0013 37.5749 40.1612C31.6079 46.0815 25.4452 51.8886 20.2202 58.4886C19.7574 59.0732 19.1285 59.6893 20.169 58.079C23.0215 53.6644 26.2519 49.4537 29.4351 45.2805C33.3194 40.1883 37.5622 35.2884 41.1841 29.9992C41.4885 29.5547 42.1964 29.0836 41.9776 28.5914C41.7998 28.1913 41.2133 29.0278 40.8769 29.3081C39.8791 30.1396 38.935 31.0338 37.9845 31.919C33.3084 36.2736 20.3741 50.2203 23.8294 44.8454C27.4052 39.283 33.6597 35.048 36.5255 29.0777C36.8995 28.2984 37.4878 26.1848 36.4487 25.5197C34.3367 24.1681 30.1463 28.395 29.1535 29.2569C26.4792 31.5788 19.6754 39.6935 21.5769 36.7056C25.73 30.1791 31.4867 24.2534 35.22 17.5335C37.5768 13.2913 22.0924 31.6572 24.6229 27.5163C27.2216 23.2639 31.5353 19.4689 33.633 14.9738C34.7094 12.6672 30.2742 18.8079 28.7696 20.8611C27.7048 22.3142 24.9113 24.9802 24.4693 26.7484C24.3091 27.3892 25.6564 26.1018 26.0819 25.5965C26.1894 25.4689 27.4386 24.3684 27.4386 24.2399C27.4386 22.2365 25.8109 27.9227 24.6997 29.5896C21.0962 34.9948 18.0752 41.3216 15.2032 47.1235C14.5074 48.5292 11.6718 54.9313 14.6913 49.9904C18.9076 43.091 23.5021 36.3721 27.4386 29.3081C28.3092 27.7457 28.9345 26.098 30.1774 24.7774C31.5071 23.3647 27.236 27.31 25.8259 28.6426C23.198 31.1261 20.6089 33.4819 18.6332 36.5264C18.0737 37.3886 17.4777 39.3201 16.7902 40.0076C15.603 41.1948 18.2626 36.9869 19.094 35.5281C20.9017 32.3561 22.6979 29.1239 24.7253 26.0829C25.3028 25.2167 25.489 24.5316 25.8771 23.6C27.166 20.5068 22.0504 29.1094 20.3482 31.9958C19.559 33.334 16.9034 36.7105 18.3772 36.2192C19.9963 35.6795 21.8317 31.683 22.6775 30.2808C27.1675 22.8368 14.6074 45.7133 11.3637 53.7787C11.1088 54.4125 10.6144 56.3423 11.0309 55.8009C13.2551 52.9094 14.6401 47.808 15.408 44.2567C15.4765 43.9398 15.553 42.994 15.408 43.284C14.8337 44.4326 14.4539 45.8743 14.077 47.0723C12.7363 51.3338 11.9377 55.6448 11.1333 60.0244C10.9245 61.1612 10.638 61.7629 10.0838 62.6864C9.01111 64.4743 10.8274 58.5826 11.2613 56.5432C11.4284 55.7577 12.0734 51.0918 12.0036 51.2702C10.2212 55.8254 9.36166 61.0391 8.03609 65.7581C7.79949 66.6004 6.62564 70.8105 8.08729 67.5499C9.74296 63.8564 11.302 59.8413 12.1828 55.8777C12.7933 53.1302 12.1934 53.8498 10.9029 55.8777C9.99683 57.3016 9.49789 58.9193 8.59923 60.3315C8.23929 60.8971 7.44113 62.8103 7.78013 60.9459C8.44138 57.309 9.95114 53.9383 10.9541 50.3999C11.4456 48.6662 11.2993 47.1924 12.2852 45.6389C13.2464 44.1242 15.5735 41.1585 13.7954 45.1014C12.4214 48.1481 10.6358 50.9679 9.29034 53.9579C7.70828 57.4736 6.42767 60.9595 5.16924 64.555C4.59354 66.1999 3.44069 71.3021 3.99178 69.6488C5.26023 65.8435 5.70763 61.8309 7.11461 58.079C7.70311 56.5097 8.27337 54.9829 9.05997 53.4972C9.66131 52.3613 10.9036 51.3794 11.3381 50.2207C12.5382 47.0204 12.1156 49.1009 11.1077 51.1166C8.01375 57.3046 7.67774 65.6975 7.67774 72.618C7.67774 77.9745 8.55622 82.5372 9.72549 87.669C10.5127 91.1241 12.9709 94.2975 13.6418 97.6518C13.8741 98.8135 13.0439 95.3318 12.4644 94.2986C11.525 92.6242 10.2151 91.0634 9.11116 89.4864C6.82606 86.222 6.17723 81.7035 6.2955 77.8398C6.43463 73.2951 8.67787 69.3954 9.46952 65.0414C9.59045 64.3763 9.74496 62.2957 9.21355 64.3246C8.21043 68.1548 6.58674 71.7278 6.39789 75.7409C6.10359 81.9949 8.05848 87.3938 9.05997 93.4027C9.7887 97.7751 10.9939 100.905 12.7459 104.896C14.1815 108.166 15.5567 111.452 16.995 114.648C18.8106 118.683 15.1925 105.985 14.3329 101.645C12.9533 94.6796 12.4464 87.5089 10.8006 80.6043C10.6647 80.0342 8.53195 73.7471 11.0309 76.7647C14.383 80.8125 16.8017 85.9872 19.2987 90.5359C22.8308 96.9701 26.19 103.509 29.8703 109.862C32.2464 113.963 31.6255 109.505 31.6364 106.764C31.6813 95.5637 31.3271 84.3467 30.9197 73.1556C30.6616 66.0647 30.4615 58.9064 29.7935 51.8334C29.6705 50.5316 29.3262 49.6007 30.1262 52.5757C33.9905 66.946 38.3608 81.1781 42.8991 95.3481C43.7649 98.0513 46.551 106.097 45.5612 103.437C43.444 97.7468 41.6247 91.9643 39.9298 86.1332C36.758 75.2206 34.139 64.1749 31.1501 53.2156C30.7701 51.8224 30.4453 50.4043 29.8959 49.0689C29.3913 47.8426 28.8088 48.2215 28.4112 49.1713C26.3492 54.0973 26.4696 60.2001 26.1075 65.4509" stroke="black" stroke-width="6" stroke-linecap="round"/>
<path d="M48.223 107.839C57.1776 98.7795 64.0716 86.6759 70.1852 75.6385C75.034 66.8845 80.1015 56.7063 80.8335 46.458C80.8811 45.7912 80.8757 43.3442 79.5537 44.6662C77.3634 46.8565 76.0173 49.9385 74.895 52.7037C70.0571 64.6243 67.6924 77.3183 66.8576 90.1263C66.2123 100.028 68.3653 109.772 67.8303 119.563C67.604 123.704 66.1945 121.773 65.6033 118.539C62.5994 102.105 62.9426 85.1623 64.7587 68.6249C65.2389 64.2517 67.0466 58.1283 66.1409 53.5996C65.8784 52.2871 65.0459 56.0704 64.8098 57.3879C62.1966 71.9717 59.5895 86.5478 57.2844 101.184C56.8405 104.003 56.8044 106.924 55.9021 109.631C55.8506 109.786 55.4733 109.733 55.4158 109.58C54.4668 107.061 53.5062 98.9979 53.3936 97.9846C52.4155 89.1816 52.165 84.0197 52.165 75.1266C52.165 67.6817 53.4036 57.8959 49.9636 73.9491C45.5843 94.3862 40.9685 115.129 39.2129 135.996C38.4205 145.415 39.4157 136.486 39.0082 142.498C38.668 147.515 38.6331 132.447 38.445 127.421C38.0421 116.653 37.7081 106.651 36.9604 95.8601C36.1732 84.4991 35.4868 72.6276 32.0458 61.6626C31.7879 60.8407 29.1085 52.6404 26.824 55.3657C21.6428 61.5469 18.6246 70.6406 16.4829 78.2494C15.193 82.8319 13.0717 90.4944 15.1518 95.3481C16.3393 98.1188 17.1538 89.625 17.6091 86.6452C20.3263 68.8647 23.759 51.2414 26.696 33.506C27.7963 26.8624 26.5221 34.3644 26.3889 35.7073C24.5261 54.4908 23.0134 73.3856 23.3429 92.2765C23.3757 94.1571 23.431 99.7692 23.7012 97.9078C24.6723 91.2183 23.8136 82.8971 23.7268 76.3296C23.6298 68.9883 23.5433 63.3114 23.1125 56.1592C23.0244 54.6973 22.8854 53.2384 22.7285 51.7822C22.6468 51.0234 22.8459 50.0817 22.319 49.5296C21.956 49.1494 21.4022 50.071 21.0391 50.4511C19.6648 51.8903 17.6244 54.4058 16.5341 55.8265C12.7449 60.7638 7.18414 67.041 6.50009 73.5395C6.39111 74.5748 7.22301 81.2173 8.29187 77.3791C10.0293 71.1402 11.6316 64.9727 14 58.9237C19.9345 43.7667 12.9798 61.8902 16.79 52.2941C17.8284 49.679 17.0074 53.9909 16.9948 54.649C16.7933 65.231 16.6751 76.0978 18.6074 86.5428C19.1153 89.2878 20.0451 95.6564 22.4214 97.8566C22.7504 98.1613 23.3729 97.3711 23.394 97.3447C24.4883 95.9768 26.8011 92.271 27.3872 91.3038C32.7285 82.4895 37.2183 73.3409 41.5167 63.9919C43.0423 60.6736 43.4952 58.3081 44.0763 64.683C44.8371 73.0281 45.054 81.4937 44.8955 89.8704C44.882 90.5787 43.7183 99.2105 45.0746 94.657C48.7104 82.4512 53.5177 69.416 54.1103 56.5944C54.3644 51.0983 51.0692 57.8829 50.6036 59.0005C47.5185 66.4046 45.824 74.4644 44.9978 82.4217C44.7654 84.6605 44.6255 86.5964 44.8699 88.7953C44.8765 88.8547 45.3311 92.1129 46.1753 91.9181C47.1666 91.6894 47.1129 90.0911 47.3528 89.1025C49.1677 81.6227 50.1536 73.8895 51.1155 66.27C52.3611 56.4032 53.8373 46.204 53.752 36.2193C53.7354 34.2835 52.6028 34.2565 51.0387 35.5537C42.4783 42.6538 38.235 56.7217 37.8307 67.3963C37.6793 71.3934 38.1143 73.954 39.5969 77.5071C40.0929 78.6959 42.2522 82.9934 44.2299 83.0104C45.9456 83.0252 47.838 79.0967 48.0183 78.7101C52.5225 69.0517 54.5709 58.1666 55.3134 47.6099C55.6947 42.1887 57.2344 27.3534 50.066 24.2399C42.8239 21.0943 36.3983 29.6585 34.4007 35.4002C30.3608 47.0118 31.274 61.3202 35.1686 72.8228C36.9311 78.0282 41.6656 89.2575 48.479 90.0751C57.5032 91.1581 63.32 77.3288 65.5266 71.287C68.4499 63.2826 70.5543 52.7921 71.3115 44.3079C71.7546 39.3421 72.6801 29.1789 68.547 24.7774C62.9341 18.8001 52.3093 30.8938 49.7589 34.3763C39.5729 48.2845 36.9614 65.0825 41.6446 81.5258C42.3732 84.0839 53.9373 115.9 60.9703 109.017C62.9259 107.103 64.7497 102.8 65.5266 100.672C68.7971 91.7146 70.9371 82.0897 70.7995 72.5157C70.654 62.3891 67.2191 51.6911 61.8918 43.0792C61.6417 42.675 59.1015 38.3238 57.7963 39.2397C57.159 39.6869 55.7967 42.2157 55.6973 42.4137C52.4469 48.8897 50.042 55.8464 47.8647 62.7377C47.4657 64.0004 41.273 78.7644 46.3801 80.0412C47.4407 80.3063 48.7719 79.0027 49.2469 78.4542C53.6004 73.4269 56.5896 66.7348 59.0249 60.6643C62.57 51.8277 65.6678 42.0536 64.6819 32.4053C64.5258 30.878 63.3392 26.6412 62.9669 28.1306C61.8701 32.5178 61.8374 38.9499 62.5317 43.4632C62.5894 43.8378 62.8934 43.7959 63.1972 43.7959C64.4232 43.7959 63.7411 33.9661 63.6836 33.0964C63.5976 31.7973 63.9194 30.1445 62.9669 29.2569C61.3801 27.7783 59.9295 32.4702 59.0505 34.4531C54.0269 45.7854 51.157 58.982 52.4209 71.3894C53.0755 77.8151 54.7683 84.1997 56.2093 90.4847C57.1762 94.7021 57.8373 94.0779 58.8458 89.512C60.7465 80.9059 61.9249 70.5496 60.1 61.8162C59.2321 57.6628 56.1542 59.3057 53.624 61.1506C42.4984 69.2631 43.2131 85.3523 46.4313 97.4471C47.51 101.501 48.9202 106.54 51.1667 110.169C52.1507 111.758 51.5469 106.347 50.9875 104.563C49.3237 99.2574 39.6384 82.2511 31.7642 89.2816C30.1714 90.7038 30.4729 94.021 30.6892 95.8345C31.346 101.342 33.9955 106.157 37.1652 110.604C38.869 112.994 40.6868 115.316 42.8477 117.31C44.9908 119.289 43.3526 117.7 41.9262 116.363C40.6046 115.124 25.0261 100.347 24.0596 102.694C23.3805 104.344 24.5748 106.751 25.1858 108.172C26.9235 112.213 29.3266 116.008 30.9707 120.075C32.4045 123.621 24.9906 115.258 22.3958 112.447C18.8484 108.604 14.7317 104.405 13.1041 99.29C12.8421 98.4666 14.2772 103.098 14.5375 103.897C14.9811 105.26 15.8979 109.479 14.5375 105.689C13.3367 102.344 11.3635 99.4762 11.3635 95.8601C11.3635 94.6111 10.3814 93.826 10.0837 92.6348C9.69988 91.0998 9.98127 89.2449 9.98127 87.669C9.98127 86.6366 9.98127 85.6042 9.98127 84.5718C9.98127 83.6565 9.98127 83.2916 9.98127 84.5974C9.98127 86.8585 9.98127 89.1195 9.98127 91.3806C9.98127 94.8102 11.1889 97.6105 11.3635 100.928C11.4147 101.901 12.6016 101.993 12.7201 102.822C12.9213 104.231 13.0583 105.79 13.1809 107.199C13.4723 110.55 15.1907 112.415 16.3293 115.314C18.3357 120.421 21.515 124.538 24.7251 128.931C25.8422 130.46 28.217 131.862 29.7933 133.078C32.2665 134.986 35.0001 137.901 37.8563 139.17C40.6001 140.39 42.5511 141.474 45.8169 141.474C48.1085 141.474 50.1768 141.316 52.3953 141.039C54.9063 140.725 57.2525 139.597 59.5881 138.607C62.9138 137.198 65.4123 135.102 67.8303 132.412C71.9085 127.877 76.197 122.615 78.0434 116.696C78.6825 114.647 81.6557 100.49 78.581 99.9044C71.5817 98.5712 67.4736 100.78 62.5061 105.792C59.5726 108.751 54.7247 114.039 54.7247 118.59C54.7247 119.165 55.5774 118.809 55.6973 118.488C57.077 114.788 55.9135 107.968 54.4175 104.461C53.2033 101.613 50.7446 106.252 50.322 107.123C47.7671 112.389 46.9003 119.442 48.4278 125.143C49.3945 128.751 60.0308 135.752 60.1512 128.726C60.2209 124.66 58.4407 120.539 56.4141 117.105C55.0034 114.716 54.1014 115.164 52.7281 117.361C50.8857 120.309 46.7346 126 48.223 129.853C48.4237 130.372 48.8673 130.947 49.5029 130.877C51.9089 130.609 48.4123 125.441 48.1975 125.143C47.8376 124.643 43.079 118.656 41.7726 120.126C40.3292 121.75 42.0969 126.289 42.7197 127.728C43.9552 130.584 45.9683 133.893 48.7862 135.458C51.2336 136.818 54.1857 133.926 55.6973 132.31C57.0979 130.812 57.4379 129.459 57.4379 127.498C57.4379 125.653 58.4987 124.05 59.1785 122.378C62.8087 113.453 65.7369 104.262 68.3422 94.9898C69.8484 89.6294 72.1818 83.3378 72.1818 77.6351C72.1818 69.374 69.968 94.329 71.6698 102.413C72.094 104.428 72.1204 100.002 71.977 100.16C71.2771 100.934 71.3397 102.154 71.1579 103.181C70.5846 106.42 70.2103 109.706 69.9548 112.984C69.6151 117.344 71.9584 109.319 72.0794 108.966C75.5168 98.9248 77.589 88.481 79.9376 78.147C80.8922 73.9468 81.5015 69.3294 79.8096 65.2206C78.218 61.3552 77.3833 56.5297 76.4308 52.4477C75.5685 48.752 74.2901 45.6783 73.0009 42.1577C70.3667 34.9644 66.1656 29.3286 59.0249 26.0829C56.351 24.8674 53.4144 23.0624 50.4244 23.0624C47.2674 23.0624 44.1105 23.0624 40.9535 23.0624C38.2956 23.0624 33.6336 24.1063 31.9946 21.4242C30.5425 19.048 41.2693 15.6905 43.2572 15.6905C47.4968 15.6905 51.2161 14.769 55.3646 14.769C58.3693 14.769 62.0339 14.8996 64.9122 15.7929C67.8508 16.7049 70.4684 18.3899 73.308 19.6069C81.9923 23.3287 83.5075 33.8084 84.7242 42.0553C86.0846 51.2758 89.9567 59.9533 91.4306 69.2393C92.7077 77.2846 94.1502 88.2723 90.3556 95.6809C87.2248 101.793 85.4741 108.698 80.7311 113.931C78.2501 116.669 71.3357 119.405 68.8286 115.339C65.4405 109.845 67.9906 99.9868 68.7518 94.1195C69.1452 91.0869 69.4394 87.5175 70.9019 84.7254C73.0858 80.5561 75.9461 76.4819 78.4274 72.4645C78.9464 71.6243 79.0929 71.0291 79.0929 70.0584" stroke="black" stroke-width="12" stroke-linecap="round"/>
<path d="M86.0044 70.9799C85.7387 78.951 85.1586 86.9745 83.7775 94.8362C83.5314 96.237 82.4454 100.274 82.344 98.8549C81.8931 92.5422 83.3749 86.0451 83.5983 79.734C83.872 72.0003 80.9612 81.2364 80.2451 83.4456C78.2762 89.5191 77.0605 95.6606 77.6086 102.055C77.875 105.163 80.5903 98.4535 80.885 97.7542C81.3039 96.7602 81.5144 95.3272 82.1137 94.401C82.9474 93.1125 82.9136 97.3971 82.9328 98.9317C83.0159 105.603 82.6621 112.294 81.9089 118.923C81.7891 119.977 81.619 121.024 81.4481 122.071C81.4141 122.28 81.4438 122.536 81.2946 122.686C81.1596 122.821 81.4432 121.937 81.3969 122.122" stroke="black" stroke-width="12" stroke-linecap="round"/>
<path d="M76.7892 53.9324C76.7892 46.6302 77.3969 38.9044 76.0981 31.6887C75.9818 31.0427 75.6919 29.4584 75.2278 29.9225C74.6535 30.4968 75.2835 31.5479 75.3814 32.3542C76.0759 38.0743 76.3909 39.4932 76.866 46.0741C78.3824 67.0793 74.8175 91.4118 57.6427 105.92C51.8996 110.771 44.8555 114.506 38.1891 117.925C36.4741 118.804 34.3252 119.938 32.5065 118.616C31.8911 118.168 26.8164 111.26 26.3121 111.73C25.4456 112.539 27.9263 118.656 28.1551 119.307C29.1881 122.246 30.5338 125.005 32.2506 127.6C33.0405 128.794 29.7584 126.149 28.8718 125.706C28.3643 125.452 30.3612 127.298 30.7148 127.651" stroke="black" stroke-width="12" stroke-linecap="round"/>
<path d="M40.8513 118.437C41.3165 121.848 42.0128 125.161 42.1312 128.624C42.2306 131.533 41.2245 135.105 42.8479 137.737C43.7312 139.169 46.4974 144.052 48.684 142.958C53.0481 140.776 59.1724 142.827 63.6582 140.501C74.6807 134.786 77.3224 119.085 80.9617 108.531C83.5631 100.986 86.0341 94.3032 86.6442 86.1845C87.5311 74.3817 87.8472 62.5387 87.8472 50.7072" stroke="black" stroke-width="12" stroke-linecap="round"/>
<path d="M84.1613 32.2773C86.3516 34.6667 87.3432 37.946 89.4855 40.3404C93.9942 45.3795 94.7765 52.856 96.1663 59.1797C98.2085 68.4716 99.2389 77.3633 98.1372 86.9779C97.2257 94.9335 95.1769 103.7 91.5076 110.885C86.9677 119.776 84.2653 131.567 74.1273 135.945C69.6821 137.864 65.2829 141.053 60.561 142.037C57.57 142.66 54.4366 144.699 51.4485 144.699" stroke="black" stroke-width="12" stroke-linecap="round"/>
</svg>
