<svg width="427" height="43" viewBox="0 0 427 43" fill="none" xmlns="http://www.w3.org/2000/svg">
<path d="M2.80864 11.1982C2.80864 17.4309 2.86374 23.2469 3.95588 29.3902C4.6801 33.4639 6.78963 45.4648 4.93923 41.764C2.70045 37.2864 3.91986 31.5358 1.6614 26.7679C0.103229 23.4784 1.41583 19.4951 4.36561 17.8358C12.808 13.087 17.5589 9.13594 17.5589 20.3762C17.5589 25.4998 22.0305 36.2736 27.884 36.2736" stroke="#FF0000" stroke-linecap="round"/>
<path d="M29.4262 15.5992C29.1989 20.8266 28.9932 24.4062 30.9666 29.3397C31.717 31.2157 34.2033 29.9723 35.3414 29.1549C38.795 26.6746 42.1193 22.0336 42.1193 17.6017C42.1193 12.8528 36.9744 10.9195 33 11.1936C27.1007 11.6004 27.3024 16.437 28.8717 21.1447" stroke="#FF0000" stroke-linecap="round"/>
<path d="M49.3901 10.6083C43.7907 10.6083 45.5899 20.2418 46.4941 23.4246C47.6435 27.4705 52.3705 30.0353 55.4901 26.1357" stroke="#FF0000" stroke-linecap="round"/>
<path d="M60.4811 22.8084C60.4811 28.5203 62.3964 34.3199 66.1498 25.6119C67.1706 23.2438 67.2041 20.8141 66.4579 18.372C66.3942 18.1636 65.3962 16.9445 65.4104 17.2013C65.4679 18.2356 66.7312 19.7626 67.2589 20.5902C68.22 22.0972 70.0386 25.2525 72.1883 23.6402C74.4328 21.9568 77.3147 16.2621 76.2858 13.381C74.8773 9.43719 78.0383 22.0654 80.9995 25.0266" stroke="#FF0000" stroke-linecap="round"/>
<path d="M82.1085 18.372C83.7322 21.6193 88.8123 28.347 92.7682 24.8418C94.6787 23.1489 100.75 16.4182 97.5127 13.5043C94.7517 11.0194 89.3487 12.5683 86.6682 14.2437C84.3432 15.6968 84.3267 17.4561 84.3267 20.0356" stroke="#FF0000" stroke-linecap="round"/>
<path d="M100.409 12.8265C100.409 16.9445 100.409 21.0626 100.409 25.1806C100.409 27.0041 99.9113 20.11 99.885 19.3887C99.8129 17.4054 99.5353 13.9169 100.655 12.1487C101.984 10.0505 104.336 12.1028 105.153 13.5042C105.967 14.8994 106.509 19.7715 106.509 18.1563C106.509 14.5019 106.919 11.5183 110.36 9.40673C117.736 4.88075 115.936 19.5397 115.936 23.3629" stroke="#FF0000" stroke-linecap="round"/>
<path d="M119.264 16.1539C120.485 20.5832 119.818 25.7605 119.818 30.3257C119.818 31.508 119.682 34.3769 119.849 31.2808C120.131 26.0644 118 17.1061 120.558 12.4568C121.548 10.6559 125.528 8.81804 127.582 9.16035C131.702 9.84703 132.143 16.3463 131.094 19.3579C129.988 22.535 126.833 25.6921 124.255 22.2539" stroke="#FF0000" stroke-linecap="round"/>
<path d="M135.346 12.8264C135.393 16.5689 134.161 36.7935 141.384 32.8211C146.513 30.0001 148.368 22.5263 148.655 17.1396C148.872 13.0483 149.076 19.9958 149.271 20.929C150.126 25.0215 151.546 28.9264 153.091 32.7903" stroke="#FF0000" stroke-linecap="round"/>
<path d="M183.546 18.9094C181.69 19.1415 181.95 28.2457 182.324 29.9075C183.689 35.9646 196.152 35.5432 197.829 29.8312C198.029 29.1485 199.275 19.7055 200.578 21.5826C200.861 21.9896 204.086 28.919 204.13 28.7237C204.77 25.8438 201.35 23.1077 203.9 20.3606C206.224 17.8589 209.299 21.8463 209.629 23.9884C209.992 26.3478 211.576 19.5513 212.187 19.0622C216.778 15.3895 219.558 23.8887 220.665 26.4706" stroke="#FF0000" stroke-linecap="round"/>
<path d="M224.789 8.59863C225.442 17.7379 227.539 26.934 227.539 36.0939" stroke="#FF0000" stroke-linecap="round"/>
<path d="M224.102 14.7851C226.723 14.5229 231.663 12.8621 231.663 17.1527C231.663 20.6605 230.43 21.6589 226.851 21.6589" stroke="#FF0000" stroke-linecap="round"/>
<path d="M239.912 21.6589C237.819 14.8574 233.746 18.8118 230.785 21.7734C229.843 22.7147 229.261 23.3173 230.021 24.7521C231.7 27.9246 234.994 26.7262 237.353 25.0194C240.658 22.6285 242.508 19.2981 242.661 15.3197C242.817 11.2744 245.662 22.8497 247.473 26.4705" stroke="#FF0000" stroke-linecap="round"/>
<path d="M248.16 14.7852C250.521 15.2911 252.436 16.9485 254.347 18.2221" stroke="#FF0000" stroke-linecap="round"/>
<path d="M256.409 10.6609C253.197 13.6584 249.663 20.4581 248.313 24.6758C247.811 26.2439 248.16 28.2638 248.16 29.9075" stroke="#FF0000" stroke-linecap="round"/>
<path d="M259.158 10.6608C259.158 11.585 258.563 16.2056 260.151 16.0071C261.852 15.7945 262.393 14.2022 262.557 12.723C263.557 3.72001 264.581 17.277 264.581 19.9787C264.581 22.7161 265.207 41.5611 260.533 42.1276C257.597 42.4834 258.429 32.8372 258.509 31.2059C258.71 27.0781 261.962 24.3546 264.657 21.6589" stroke="#FF0000" stroke-linecap="round"/>
<path d="M302.463 15.4725C303.233 12.392 308.781 4.69201 306.206 1.38117C303.97 -1.4926 304.004 12.7824 304.22 14.1359C304.5 15.8979 304.459 20.2662 306.626 20.857C310.104 21.8056 314.198 16.4206 315.752 14.0213C316.814 12.3831 316.5 9.17602 313.843 10.6608C310.596 12.4752 306.396 15.3592 305.213 18.9094" stroke="#FF0000" stroke-linecap="round"/>
<path d="M343 14.0213C344.49 11.042 349.375 16.5414 349.434 17.2291C349.608 19.2426 347.914 26.2072 350.045 27.6926C353.661 30.2127 359.943 22.0975 361.349 19.8259C361.89 18.9504 363.11 13.2203 362.609 15.6252C362.332 16.9532 361.679 19.9156 362.38 21.2006C363.636 23.5041 368.448 19.8633 368.986 18.4511C370.103 15.5256 369.827 5.96388 369.827 9.09509C369.827 13.2753 370.649 17.7097 373.607 20.8951C376.589 24.1062 377.135 11.4633 378.075 14.0213C379.289 17.3258 381.962 23.6754 385.598 18.222C387.428 15.4767 385.123 12.0356 382.199 12.0356" stroke="#FF0000" stroke-linecap="round"/>
<path d="M383.574 5.84912C383.637 8.3554 382.921 15.2621 385.789 16.389C388.609 17.4968 392.563 16.4272 394.458 14.0595C395.928 12.2219 394.914 9.71487 395.298 7.60576C395.861 4.50751 398.085 5.79195 397.971 8.75139C397.877 11.1877 396.297 14.4094 396.94 14.0977C401.17 12.0465 405.861 16.2247 407.938 19.5967C409.216 21.6714 411.48 37.883 405.876 33.1152C402.875 30.5625 401.904 22.1168 403.508 18.9093" stroke="#FF0000" stroke-linecap="round"/>
<path d="M411.757 11.3482C411.049 7.09941 408.542 6.4692 406.258 9.51522C405.241 10.8714 403.929 18.5199 407.327 15.7398C410.434 13.1978 409.84 6.22334 411.337 2.56504C412.516 -0.317556 414.193 4.08196 414.926 5.39094C418.232 11.2881 419.405 13.4104 426.192 13.4104" stroke="#FF0000" stroke-linecap="round"/>
</svg>
